<svg width="369" height="47" viewBox="0 0 369 47" fill="none" xmlns="http://www.w3.org/2000/svg">
<rect x="214" width="154.256" height="47" rx="23.5" fill="white"/>
<path d="M252.054 25.386H256.016V30.566C255.493 30.7433 254.947 30.8833 254.378 30.986C253.818 31.0887 253.179 31.14 252.46 31.14C250.967 31.14 249.819 30.7013 249.016 29.824C248.213 28.9467 247.812 27.668 247.812 25.988C247.812 24.9427 248.013 24.0373 248.414 23.272C248.825 22.5067 249.417 21.914 250.192 21.494C250.967 21.074 251.914 20.864 253.034 20.864C253.566 20.864 254.089 20.92 254.602 21.032C255.115 21.144 255.582 21.2933 256.002 21.48L255.302 23.174C254.994 23.0153 254.644 22.8847 254.252 22.782C253.86 22.6793 253.449 22.628 253.02 22.628C252.404 22.628 251.867 22.768 251.41 23.048C250.962 23.328 250.612 23.7247 250.36 24.238C250.117 24.742 249.996 25.3393 249.996 26.03C249.996 26.6833 250.085 27.262 250.262 27.766C250.439 28.27 250.719 28.6667 251.102 28.956C251.485 29.236 251.984 29.376 252.6 29.376C252.899 29.376 253.151 29.362 253.356 29.334C253.571 29.306 253.767 29.2733 253.944 29.236V27.15H252.054V25.386ZM261.373 23.216C262.428 23.216 263.263 23.5193 263.879 24.126C264.495 24.7233 264.803 25.5773 264.803 26.688V27.696H259.875C259.894 28.284 260.066 28.746 260.393 29.082C260.729 29.418 261.191 29.586 261.779 29.586C262.274 29.586 262.722 29.5393 263.123 29.446C263.524 29.3433 263.94 29.1893 264.369 28.984V30.594C263.996 30.7807 263.599 30.916 263.179 31C262.768 31.0933 262.269 31.14 261.681 31.14C260.916 31.14 260.239 31 259.651 30.72C259.063 30.4307 258.601 29.9967 258.265 29.418C257.929 28.8393 257.761 28.1113 257.761 27.234C257.761 26.338 257.91 25.596 258.209 25.008C258.517 24.4107 258.942 23.9627 259.483 23.664C260.024 23.3653 260.654 23.216 261.373 23.216ZM261.387 24.7C260.986 24.7 260.65 24.8307 260.379 25.092C260.118 25.3533 259.964 25.7593 259.917 26.31H262.843C262.834 25.8433 262.712 25.4607 262.479 25.162C262.246 24.854 261.882 24.7 261.387 24.7ZM269.714 29.474C269.948 29.474 270.172 29.4507 270.386 29.404C270.601 29.3573 270.816 29.3013 271.03 29.236V30.79C270.806 30.8833 270.526 30.9627 270.19 31.028C269.864 31.1027 269.504 31.14 269.112 31.14C268.655 31.14 268.244 31.0653 267.88 30.916C267.526 30.7667 267.241 30.51 267.026 30.146C266.821 29.7727 266.718 29.2593 266.718 28.606V24.924H265.724V24.042L266.872 23.342L267.474 21.732H268.804V23.356H270.946V24.924H268.804V28.606C268.804 28.8953 268.888 29.1147 269.056 29.264C269.224 29.404 269.444 29.474 269.714 29.474ZM280.107 31H275.557V29.796L276.775 29.236V22.768L275.557 22.208V21.004H280.107V22.208L278.889 22.768V29.236L280.107 29.796V31ZM285.983 23.216C286.804 23.216 287.462 23.44 287.957 23.888C288.451 24.3267 288.699 25.036 288.699 26.016V31H286.613V26.534C286.613 25.9833 286.515 25.5727 286.319 25.302C286.123 25.022 285.81 24.882 285.381 24.882C284.746 24.882 284.312 25.1013 284.079 25.54C283.845 25.9693 283.729 26.59 283.729 27.402V31H281.643V23.356H283.239L283.519 24.336H283.631C283.873 23.944 284.205 23.6593 284.625 23.482C285.054 23.3047 285.507 23.216 285.983 23.216ZM298.499 31H296.385V22.768H293.669V21.004H301.215V22.768H298.499V31ZM308.548 27.164C308.548 28.4333 308.212 29.4133 307.54 30.104C306.877 30.7947 305.972 31.14 304.824 31.14C304.114 31.14 303.48 30.986 302.92 30.678C302.369 30.37 301.935 29.922 301.618 29.334C301.3 28.7367 301.142 28.0133 301.142 27.164C301.142 25.8947 301.473 24.9193 302.136 24.238C302.798 23.5567 303.708 23.216 304.866 23.216C305.584 23.216 306.219 23.37 306.77 23.678C307.32 23.986 307.754 24.434 308.072 25.022C308.389 25.6007 308.548 26.3147 308.548 27.164ZM303.27 27.164C303.27 27.92 303.391 28.494 303.634 28.886C303.886 29.2687 304.292 29.46 304.852 29.46C305.402 29.46 305.799 29.2687 306.042 28.886C306.294 28.494 306.42 27.92 306.42 27.164C306.42 26.408 306.294 25.8433 306.042 25.47C305.799 25.0873 305.398 24.896 304.838 24.896C304.287 24.896 303.886 25.0873 303.634 25.47C303.391 25.8433 303.27 26.408 303.27 27.164ZM317.286 23.356V31H315.69L315.41 30.02H315.298C315.055 30.412 314.719 30.6967 314.29 30.874C313.87 31.0513 313.422 31.14 312.946 31.14C312.124 31.14 311.466 30.9207 310.972 30.482C310.477 30.034 310.23 29.32 310.23 28.34V23.356H312.316V27.822C312.316 28.3633 312.414 28.774 312.61 29.054C312.806 29.334 313.118 29.474 313.548 29.474C314.182 29.474 314.616 29.2593 314.85 28.83C315.083 28.3913 315.2 27.766 315.2 26.954V23.356H317.286ZM322.581 31.14C321.442 31.14 320.56 30.8273 319.935 30.202C319.319 29.5673 319.011 28.5733 319.011 27.22C319.011 26.2867 319.17 25.526 319.487 24.938C319.804 24.35 320.243 23.916 320.803 23.636C321.372 23.356 322.026 23.216 322.763 23.216C323.286 23.216 323.738 23.2673 324.121 23.37C324.513 23.4727 324.854 23.594 325.143 23.734L324.527 25.344C324.2 25.2133 323.892 25.106 323.603 25.022C323.323 24.938 323.043 24.896 322.763 24.896C321.68 24.896 321.139 25.666 321.139 27.206C321.139 27.9713 321.279 28.536 321.559 28.9C321.848 29.264 322.25 29.446 322.763 29.446C323.202 29.446 323.589 29.39 323.925 29.278C324.261 29.1567 324.588 28.9933 324.905 28.788V30.566C324.588 30.7713 324.252 30.916 323.897 31C323.552 31.0933 323.113 31.14 322.581 31.14ZM328.75 20.36V22.53C328.75 22.9033 328.736 23.2627 328.708 23.608C328.69 23.9533 328.671 24.196 328.652 24.336H328.764C329.007 23.944 329.32 23.6593 329.702 23.482C330.085 23.3047 330.51 23.216 330.976 23.216C331.807 23.216 332.47 23.44 332.964 23.888C333.468 24.3267 333.72 25.036 333.72 26.016V31H331.634V26.534C331.634 25.4327 331.224 24.882 330.402 24.882C329.777 24.882 329.343 25.1013 329.1 25.54C328.867 25.9693 328.75 26.59 328.75 27.402V31H326.664V20.36H328.75Z" fill="#5051DB"/>
<path d="M8.72 28L7.344 24.464H2.816L1.456 28H0L4.464 16.528H5.76L10.208 28H8.72ZM6.912 23.184L5.632 19.728C5.6 19.6427 5.54667 19.488 5.472 19.264C5.39733 19.04 5.32267 18.8107 5.248 18.576C5.184 18.3307 5.13067 18.144 5.088 18.016C5.01333 18.3467 4.928 18.672 4.832 18.992C4.736 19.3013 4.656 19.5467 4.592 19.728L3.296 23.184H6.912ZM12.9868 15.84V18.8C12.9868 19.1627 12.9761 19.504 12.9548 19.824C12.9441 20.1333 12.9281 20.3787 12.9068 20.56H12.9868C13.2321 20.1973 13.5681 19.8933 13.9948 19.648C14.4214 19.4027 14.9708 19.28 15.6428 19.28C16.7094 19.28 17.5628 19.6533 18.2028 20.4C18.8534 21.136 19.1788 22.24 19.1788 23.712C19.1788 25.184 18.8534 26.2933 18.2028 27.04C17.5521 27.7867 16.6988 28.16 15.6428 28.16C14.9708 28.16 14.4214 28.0373 13.9948 27.792C13.5681 27.5467 13.2321 27.2533 12.9868 26.912H12.8748L12.5868 28H11.5788V15.84H12.9868ZM15.4028 20.448C14.4961 20.448 13.8668 20.7093 13.5148 21.232C13.1628 21.7547 12.9868 22.5653 12.9868 23.664V23.728C12.9868 24.784 13.1574 25.5947 13.4988 26.16C13.8508 26.7147 14.4961 26.992 15.4348 26.992C16.2028 26.992 16.7734 26.7093 17.1468 26.144C17.5308 25.5787 17.7228 24.7627 17.7228 23.696C17.7228 21.5307 16.9494 20.448 15.4028 20.448ZM28.8785 23.696C28.8785 25.1147 28.5158 26.2133 27.7905 26.992C27.0758 27.7707 26.1052 28.16 24.8785 28.16C24.1212 28.16 23.4438 27.9893 22.8465 27.648C22.2598 27.296 21.7958 26.7893 21.4545 26.128C21.1132 25.456 20.9425 24.6453 20.9425 23.696C20.9425 22.2773 21.2998 21.184 22.0145 20.416C22.7292 19.648 23.6998 19.264 24.9265 19.264C25.7052 19.264 26.3878 19.44 26.9745 19.792C27.5718 20.1333 28.0358 20.6347 28.3665 21.296C28.7078 21.9467 28.8785 22.7467 28.8785 23.696ZM22.3985 23.696C22.3985 24.7093 22.5958 25.5147 22.9905 26.112C23.3958 26.6987 24.0358 26.992 24.9105 26.992C25.7745 26.992 26.4092 26.6987 26.8145 26.112C27.2198 25.5147 27.4225 24.7093 27.4225 23.696C27.4225 22.6827 27.2198 21.888 26.8145 21.312C26.4092 20.736 25.7692 20.448 24.8945 20.448C24.0198 20.448 23.3852 20.736 22.9905 21.312C22.5958 21.888 22.3985 22.6827 22.3985 23.696ZM38.278 19.424V28H37.126L36.918 26.864H36.854C36.5767 27.312 36.1927 27.6427 35.702 27.856C35.2113 28.0587 34.6887 28.16 34.134 28.16C33.0993 28.16 32.3207 27.9147 31.798 27.424C31.2753 26.9227 31.014 26.128 31.014 25.04V19.424H32.438V24.944C32.438 26.3093 33.0727 26.992 34.342 26.992C35.2913 26.992 35.9473 26.7253 36.31 26.192C36.6833 25.6587 36.87 24.8907 36.87 23.888V19.424H38.278ZM43.8646 27.008C44.078 27.008 44.2966 26.992 44.5206 26.96C44.7446 26.9173 44.926 26.8747 45.0646 26.832V27.904C44.9153 27.9787 44.702 28.0373 44.4246 28.08C44.1473 28.1333 43.8806 28.16 43.6246 28.16C43.1766 28.16 42.7606 28.0853 42.3766 27.936C42.0033 27.776 41.6993 27.504 41.4646 27.12C41.23 26.736 41.1126 26.1973 41.1126 25.504V20.512H39.8966V19.84L41.1286 19.28L41.6886 17.456H42.5206V19.424H45.0006V20.512H42.5206V25.472C42.5206 25.9947 42.6433 26.384 42.8886 26.64C43.1446 26.8853 43.47 27.008 43.8646 27.008ZM59.8181 16.576V23.968C59.8181 24.7573 59.6581 25.472 59.3381 26.112C59.0181 26.7413 58.5275 27.2427 57.8661 27.616C57.2155 27.9787 56.3835 28.16 55.3701 28.16C53.9515 28.16 52.8688 27.776 52.1221 27.008C51.3861 26.2293 51.0181 25.2053 51.0181 23.936V16.576H52.4581V23.984C52.4581 24.912 52.7035 25.632 53.1941 26.144C53.6955 26.656 54.4475 26.912 55.4501 26.912C56.4848 26.912 57.2315 26.64 57.6901 26.096C58.1595 25.5413 58.3941 24.832 58.3941 23.968V16.576H59.8181ZM68.2253 25.632C68.2253 26.464 67.9159 27.0933 67.2973 27.52C66.6786 27.9467 65.8466 28.16 64.8013 28.16C64.2039 28.16 63.6866 28.112 63.2493 28.016C62.8226 27.92 62.4439 27.7867 62.1133 27.616V26.336C62.4546 26.5067 62.8653 26.6667 63.3453 26.816C63.8359 26.9547 64.3319 27.024 64.8333 27.024C65.5479 27.024 66.0653 26.912 66.3853 26.688C66.7053 26.4533 66.8653 26.144 66.8653 25.76C66.8653 25.5467 66.8066 25.3547 66.6893 25.184C66.5719 25.0133 66.3586 24.8427 66.0493 24.672C65.7506 24.5013 65.3186 24.3093 64.7533 24.096C64.1986 23.8827 63.7239 23.6693 63.3293 23.456C62.9346 23.2427 62.6306 22.9867 62.4173 22.688C62.2039 22.3893 62.0973 22.0053 62.0973 21.536C62.0973 20.8107 62.3906 20.2507 62.9773 19.856C63.5746 19.4613 64.3533 19.264 65.3133 19.264C65.8359 19.264 66.3213 19.3173 66.7693 19.424C67.2279 19.52 67.6546 19.6587 68.0493 19.84L67.5693 20.96C67.2066 20.8107 66.8279 20.6827 66.4333 20.576C66.0386 20.4693 65.6333 20.416 65.2173 20.416C64.6413 20.416 64.1986 20.512 63.8893 20.704C63.5906 20.8853 63.4413 21.136 63.4413 21.456C63.4413 21.6907 63.5106 21.8933 63.6493 22.064C63.7879 22.224 64.0173 22.384 64.3373 22.544C64.6679 22.6933 65.1053 22.8747 65.6493 23.088C66.1933 23.2907 66.6573 23.4987 67.0413 23.712C67.4253 23.9253 67.7186 24.1867 67.9213 24.496C68.1239 24.7947 68.2253 25.1733 68.2253 25.632Z" fill="white"/>
<path d="M134.52 22.272C134.52 23.456 134.317 24.4907 133.912 25.376C133.517 26.2507 132.931 26.9333 132.152 27.424C131.373 27.9147 130.408 28.16 129.256 28.16C128.072 28.16 127.085 27.9147 126.296 27.424C125.517 26.9333 124.936 26.2453 124.552 25.36C124.168 24.4747 123.976 23.44 123.976 22.256C123.976 21.0827 124.168 20.0587 124.552 19.184C124.936 18.3093 125.517 17.6267 126.296 17.136C127.085 16.6453 128.077 16.4 129.272 16.4C130.413 16.4 131.373 16.6453 132.152 17.136C132.931 17.616 133.517 18.2987 133.912 19.184C134.317 20.0587 134.52 21.088 134.52 22.272ZM125.496 22.272C125.496 23.712 125.8 24.848 126.408 25.68C127.016 26.5013 127.965 26.912 129.256 26.912C130.557 26.912 131.507 26.5013 132.104 25.68C132.701 24.848 133 23.712 133 22.272C133 20.832 132.701 19.7067 132.104 18.896C131.507 18.0747 130.563 17.664 129.272 17.664C127.981 17.664 127.027 18.0747 126.408 18.896C125.8 19.7067 125.496 20.832 125.496 22.272ZM141.452 20.512H139.292V28H137.884V20.512H136.38V19.856L137.884 19.376V18.88C137.884 17.7707 138.129 16.976 138.62 16.496C139.111 16.0053 139.793 15.76 140.668 15.76C141.009 15.76 141.319 15.792 141.596 15.856C141.884 15.9093 142.129 15.9733 142.332 16.048L141.964 17.152C141.793 17.0987 141.596 17.0453 141.372 16.992C141.148 16.9387 140.919 16.912 140.684 16.912C140.215 16.912 139.863 17.072 139.628 17.392C139.404 17.7013 139.292 18.192 139.292 18.864V19.424H141.452V20.512ZM146.956 20.512H144.796V28H143.388V20.512H141.884V19.856L143.388 19.376V18.88C143.388 17.7707 143.633 16.976 144.124 16.496C144.615 16.0053 145.297 15.76 146.172 15.76C146.513 15.76 146.823 15.792 147.1 15.856C147.388 15.9093 147.633 15.9733 147.836 16.048L147.468 17.152C147.297 17.0987 147.1 17.0453 146.876 16.992C146.652 16.9387 146.423 16.912 146.188 16.912C145.719 16.912 145.367 17.072 145.132 17.392C144.908 17.7013 144.796 18.192 144.796 18.864V19.424H146.956V20.512ZM152.468 19.264C153.204 19.264 153.833 19.424 154.356 19.744C154.889 20.064 155.294 20.5173 155.572 21.104C155.86 21.68 156.004 22.3573 156.004 23.136V23.984H150.132C150.153 24.9547 150.398 25.696 150.868 26.208C151.348 26.7093 152.014 26.96 152.868 26.96C153.412 26.96 153.892 26.912 154.308 26.816C154.734 26.7093 155.172 26.56 155.62 26.368V27.6C155.182 27.792 154.75 27.9307 154.324 28.016C153.897 28.112 153.39 28.16 152.804 28.16C151.993 28.16 151.273 27.9947 150.644 27.664C150.025 27.3333 149.54 26.8427 149.188 26.192C148.846 25.5307 148.676 24.7253 148.676 23.776C148.676 22.8373 148.83 22.032 149.14 21.36C149.46 20.688 149.902 20.1707 150.468 19.808C151.044 19.4453 151.71 19.264 152.468 19.264ZM152.452 20.416C151.78 20.416 151.246 20.6347 150.852 21.072C150.468 21.4987 150.238 22.096 150.164 22.864H154.532C154.521 22.1387 154.35 21.552 154.02 21.104C153.689 20.6453 153.166 20.416 152.452 20.416ZM162.827 19.264C162.987 19.264 163.158 19.2747 163.339 19.296C163.531 19.3067 163.696 19.328 163.835 19.36L163.659 20.656C163.52 20.624 163.366 20.5973 163.195 20.576C163.035 20.5547 162.88 20.544 162.731 20.544C162.294 20.544 161.883 20.6667 161.499 20.912C161.115 21.1467 160.806 21.4827 160.571 21.92C160.347 22.3467 160.235 22.848 160.235 23.424V28H158.827V19.424H159.979L160.139 20.992H160.203C160.48 20.5227 160.838 20.1173 161.275 19.776C161.712 19.4347 162.23 19.264 162.827 19.264Z" fill="white"/>
</svg>
